<svg width="251" height="47" viewBox="0 0 251 47" fill="none" xmlns="http://www.w3.org/2000/svg">
<path d="M10.1667 35.1397C10.1408 35.4164 10.2016 35.6943 10.3406 35.9352C10.4796 36.1762 10.6901 36.3683 10.943 36.4852C11.8679 36.7809 12.8341 36.9285 13.8054 36.9225L13.5893 37.8912C11.9489 37.797 9.68741 37.7432 6.7981 37.7432C3.90878 37.7432 1.54603 37.797 0.0473633 37.8912L0.310642 36.9225C1.25874 36.9011 2.20114 36.7701 3.11895 36.5323C3.73924 36.3448 4.27118 35.9413 4.61761 35.3953C5.09973 34.5694 5.4676 33.6824 5.71123 32.7582L12.7658 8.73466C12.9952 7.97695 13.1401 7.19633 13.1978 6.40696C13.2318 6.12118 13.1752 5.83197 13.036 5.57983C12.8968 5.3277 12.6819 5.12528 12.4215 5.00094C11.5139 4.71046 10.5664 4.56293 9.61316 4.56366L9.88319 3.59491C11.3413 3.69582 13.6096 3.74292 16.6744 3.74292C19.5232 3.74292 21.8027 3.69358 23.5129 3.59491L23.2496 4.56366C22.2657 4.58181 21.2872 4.71272 20.3333 4.95384C19.7193 5.14242 19.1898 5.53702 18.8347 6.07059C18.3397 6.9093 17.9712 7.81599 17.741 8.76155L10.6528 32.7649C10.4147 33.5392 10.252 34.3344 10.1667 35.1397ZM38.8033 3.65546C39.0582 3.89722 39.2585 4.19017 39.3912 4.5149C39.5239 4.83963 39.5858 5.18876 39.5729 5.53914C39.5447 6.33503 39.2766 7.10398 38.8033 7.74573C38.5466 8.11944 38.1972 8.42056 37.789 8.61979C37.3809 8.81902 36.928 8.90957 36.4743 8.88264C36.1863 8.90732 35.8963 8.87027 35.6238 8.77395C35.3513 8.67764 35.1027 8.52432 34.8947 8.32428C34.562 7.95525 34.3812 7.4748 34.3884 6.9788C34.4162 6.43759 34.5811 5.91223 34.8677 5.45168C35.1875 4.89076 35.606 4.39172 36.1031 3.97838H35.968C35.2724 3.99962 34.6005 4.23459 34.0441 4.65112C33.3985 5.18512 32.8778 5.85327 32.5184 6.6088C32.1044 7.43851 31.5778 8.65841 30.9387 10.2685C30.3215 11.8788 29.6092 13.4513 28.8055 14.9777C28.1049 16.2461 27.1597 17.364 26.0242 18.2674C24.742 19.2652 23.2013 19.8789 21.5822 20.0367C22.6823 20.2225 23.7476 20.5741 24.7416 21.0794C25.5777 21.6058 26.205 22.4046 26.517 23.3398C26.9978 24.8328 27.179 26.4056 27.0503 27.9683L26.8343 33.4444C26.7701 34.0759 26.8532 34.7137 27.0773 35.3079C27.2731 35.7115 27.7524 35.9134 28.4275 35.9134C28.8471 35.9205 29.264 35.8452 29.6543 35.6917C30.0447 35.5381 30.4009 35.3094 30.7025 35.0186C31.4633 34.1874 32.0365 33.2033 32.3834 32.1326L33.2947 29.6636H34.3613L32.9707 33.3906C32.4708 34.9124 31.5655 36.2704 30.3514 37.3194C29.234 38.1723 27.8564 38.6164 26.4495 38.5774C23.1686 38.5774 21.6722 36.7049 21.9603 32.96L22.3315 27.4839C22.3315 27.0668 22.3856 26.4815 22.3856 25.7415C22.4428 24.6001 22.2801 23.4583 21.9062 22.3778C21.5849 21.6386 21.0666 21.0011 20.4076 20.5345C19.4106 20.7849 18.3903 20.9314 17.363 20.9718C16.2559 20.9718 15.7023 20.6489 15.7023 20.0031C15.7023 19.3303 16.2356 19.0343 17.309 19.0343C18.4101 19.079 19.5033 19.2414 20.5696 19.5187C22.1869 19.401 23.736 18.8218 25.0318 17.8503C26.1494 16.9964 27.0702 15.9136 27.7321 14.6749C28.4974 13.1613 29.1846 11.6098 29.7911 10.0263C30.2723 8.71378 30.8267 7.42908 31.4518 6.17823C31.872 5.33767 32.4737 4.60021 33.2137 4.01874C34.1351 3.31489 35.2595 2.92565 36.4203 2.90872C37.2813 2.84478 38.1341 3.112 38.8033 3.65546Z" fill="white"/>
<path d="M40.6937 22.7611C41.8933 19.9102 43.7422 17.3766 46.0943 15.361C48.3513 13.3769 51.2668 12.2982 54.2761 12.3336C55.2595 12.2749 56.2446 12.4144 57.1725 12.7439C58.1005 13.0733 58.9522 13.5859 59.6767 14.251C60.9819 15.5202 61.6322 17.4173 61.6277 19.9423C61.5663 22.7758 60.9302 25.5676 59.7577 28.1498C58.5595 31.0014 56.7103 33.5352 54.3572 35.5499C52.1002 37.5339 49.1847 38.6127 46.1753 38.5772C45.192 38.636 44.2069 38.4965 43.2789 38.167C42.351 37.8376 41.4992 37.325 40.7747 36.6599C39.4785 35.3884 38.8237 33.4913 38.8237 30.9685C38.8855 28.1351 39.5216 25.3433 40.6937 22.7611ZM48.7946 16.4374C47.0362 18.8099 45.715 21.4751 44.8926 24.3084C43.9466 27.2448 43.4504 30.3066 43.421 33.3904C43.3352 34.5092 43.5968 35.6271 44.1703 36.5926C44.4423 36.9356 44.7941 37.2073 45.1952 37.3843C45.5963 37.5613 46.0347 37.6382 46.4723 37.6085C48.2725 37.6085 49.9917 36.559 51.6299 34.4601C53.3882 32.0875 54.7094 29.4223 55.5318 26.589C56.4812 23.6534 56.9774 20.5912 57.0035 17.507C57.0904 16.3903 56.8287 15.2741 56.2541 14.3115C55.9858 13.9657 55.6358 13.6913 55.2354 13.5129C54.8349 13.3345 54.3964 13.2576 53.9589 13.2889C52.1699 13.2889 50.4215 14.3384 48.7946 16.4374Z" fill="white"/>
<path d="M94.9695 29.9998H95.9888L94.6387 33.5384C94.1488 35.0707 93.208 36.4208 91.9384 37.4134C90.9306 38.155 89.7144 38.5621 88.4618 38.5772C87.8542 38.5918 87.2508 38.4747 86.6931 38.2341C86.228 38.0368 85.8229 37.7213 85.5184 37.3192C85.194 36.8138 85.0272 36.2238 85.0391 35.6239C85.0525 34.8499 85.1776 34.0818 85.4104 33.3433C85.6624 32.5046 85.8245 31.9732 85.8965 31.7489L90.0077 16.9486L76.5062 38.113H75.4868L74.5823 16.9957C73.4751 23.2746 72.2262 28.1027 70.8356 31.4798C69.4449 34.857 67.7888 37.003 65.8671 37.9179C64.895 38.3653 63.832 38.5818 62.7617 38.5503C62.0486 38.6064 61.3368 38.4267 60.7365 38.039C60.5197 37.8814 60.345 37.6733 60.2273 37.4329C60.1096 37.1926 60.0527 36.9272 60.0614 36.6599C60.0723 36.2777 60.1611 35.9016 60.3224 35.5547C60.4837 35.2077 60.7142 34.8971 60.9998 34.6417C61.2872 34.3451 61.6326 34.1104 62.0146 33.9519C62.3965 33.7934 62.807 33.7145 63.2208 33.72C63.6936 33.6878 64.1612 33.8343 64.5304 34.1304C64.6794 34.2694 64.7969 34.4386 64.8749 34.6266C64.9529 34.8145 64.9897 35.017 64.9827 35.2203C64.9434 35.74 64.7885 36.2444 64.5293 36.6971C64.2701 37.1497 63.9131 37.5392 63.484 37.8372H63.538C64.316 37.7366 65.0637 37.4729 65.732 37.0636C67.7257 35.8302 69.3639 33.2222 70.6466 29.2396C72.2656 23.9141 73.5351 18.4894 74.4472 12.9996C75.9321 12.9818 77.407 12.7553 78.8284 12.3269L79.3618 31.9978L90.9663 13.78L91.1823 13.0064C92.8424 12.9898 94.4937 12.7638 96.0968 12.3336L89.4136 33.747C89.3799 33.8748 89.3123 34.1237 89.2043 34.4937C89.1018 34.8321 89.0473 35.183 89.0423 35.5364C89.0171 35.6977 89.0298 35.8625 89.0793 36.0181C89.1288 36.1736 89.2137 36.3156 89.3275 36.4329C89.4413 36.5502 89.5809 36.6397 89.7352 36.6942C89.8895 36.7488 90.0544 36.767 90.2169 36.7474C91.7921 36.7474 93.1648 35.1014 94.3349 31.8095L94.9695 29.9998Z" fill="white"/>
<path d="M125.753 30.0536H126.772L125.422 33.5855C124.139 36.9178 121.984 38.5817 118.955 38.5772C118.4 38.5812 117.852 38.4641 117.348 38.2341C116.88 38.0387 116.488 37.6992 116.227 37.2654C116.007 36.7961 115.896 36.2832 115.903 35.7652C115.993 34.4171 116.245 33.0845 116.653 31.796L118.313 25.7413C116.243 30.3563 114.229 33.6505 112.271 35.6239C110.314 37.5973 108.174 38.5817 105.852 38.5772C102.863 38.5772 101.367 37.3327 101.362 34.8435C101.402 33.6162 101.655 32.4051 102.112 31.2645L107.296 17.137C107.534 16.5673 107.678 15.963 107.721 15.3475C107.721 14.5402 107.296 14.1366 106.439 14.1366C106.038 14.1616 105.646 14.2717 105.291 14.4597C104.936 14.6476 104.625 14.9091 104.38 15.2264C103.484 16.3865 102.788 17.687 102.321 19.0745L101.646 20.8707H100.626L101.977 17.3321C103.259 14.0088 105.415 12.3448 108.444 12.3404C110.942 12.3404 112.19 13.3427 112.19 15.3475C112.118 16.6443 111.828 17.9199 111.333 19.1216L106.257 32.98C105.94 33.7509 105.757 34.5699 105.717 35.4019C105.717 36.4985 106.29 37.0434 107.431 37.0434C108.822 37.0434 110.354 36.115 112.028 34.2582C114.015 31.9073 115.679 29.3033 116.977 26.515C118.724 22.9326 120.154 19.2049 121.25 15.3744L121.891 12.9996C123.537 12.9969 125.174 12.7706 126.759 12.3269L120.129 33.7873C119.921 34.3983 119.794 35.0339 119.751 35.6777C119.731 35.8295 119.746 35.9839 119.796 36.1288C119.845 36.2737 119.928 36.4051 120.037 36.5127C120.147 36.6203 120.28 36.7012 120.426 36.7489C120.572 36.7966 120.727 36.8099 120.879 36.7877C121.301 36.7707 121.714 36.6597 122.088 36.463C122.462 36.2663 122.787 35.9888 123.039 35.6508C123.92 34.5037 124.604 33.2194 125.064 31.8498L125.753 30.0536Z" fill="white"/>
<path d="M156.077 29.9998H157.097L155.747 33.5384C155.231 35.0504 154.295 36.3851 153.046 37.3865C152.063 38.1381 150.863 38.5555 149.624 38.5772C149.018 38.5912 148.417 38.4741 147.862 38.2341C147.397 38.0368 146.992 37.7213 146.687 37.3192C146.358 36.8157 146.188 36.2248 146.201 35.6239C146.217 34.8496 146.345 34.0817 146.579 33.3433C146.829 32.5024 146.984 31.9978 147.058 31.7489L150.731 18.5699C150.775 18.2017 150.793 17.8307 150.785 17.4599C150.849 16.3723 150.581 15.2909 150.015 14.3586C149.764 13.9938 149.423 13.6996 149.024 13.504C148.626 13.3085 148.184 13.2182 147.74 13.2418C147.171 13.2448 146.61 13.3773 146.1 13.6291C145.59 13.8809 145.144 14.2455 144.797 14.6949C143.942 15.7357 143.258 16.9051 142.772 18.1595C142.241 19.505 141.671 21.2093 141.064 23.2724L140.638 24.7255C139.887 27.2101 139.212 29.2284 138.613 30.7802C138.056 32.2843 137.319 33.7162 136.419 35.0453C135.634 36.2371 134.559 37.2114 133.294 37.8776C132.36 38.3284 131.334 38.5586 130.296 38.5503C129.583 38.6063 128.871 38.4267 128.271 38.039C128.054 37.8813 127.88 37.6733 127.762 37.4329C127.644 37.1926 127.587 36.9272 127.596 36.6599C127.605 36.2774 127.693 35.9008 127.855 35.5536C128.016 35.2065 128.248 34.896 128.534 34.6417C128.821 34.3456 129.165 34.1111 129.546 33.9526C129.927 33.7941 130.336 33.715 130.749 33.72C131.222 33.685 131.69 33.8319 132.058 34.1304C132.21 34.268 132.329 34.4367 132.408 34.6249C132.488 34.8131 132.525 35.0163 132.517 35.2202C132.478 35.7399 132.323 36.2444 132.064 36.697C131.805 37.1497 131.448 37.5391 131.019 37.8372H131.073C132.684 37.4966 134.101 36.5495 135.029 35.1933C136.14 33.7143 137.032 32.0828 137.675 30.3496C138.35 28.5937 138.985 26.5486 139.626 24.2277L139.95 23.2051C141.053 19.4288 142.178 16.6683 143.325 14.9237C143.774 14.136 144.422 13.4797 145.205 13.0204C145.988 12.561 146.879 12.315 147.788 12.3067C148.255 12.284 148.722 12.3584 149.159 12.5252C149.596 12.692 149.993 12.9475 150.326 13.2755C150.99 14.0166 151.362 14.9728 151.372 15.9664L152.223 13.0131C153.885 12.9965 155.539 12.7704 157.144 12.3403L150.461 33.7537C150.42 33.8815 150.353 34.1304 150.245 34.5004C150.142 34.8388 150.088 35.1897 150.083 35.5431C150.057 35.705 150.07 35.8705 150.12 36.0267C150.17 36.1828 150.255 36.3252 150.37 36.4426C150.485 36.5601 150.625 36.6494 150.78 36.7034C150.935 36.7575 151.101 36.7748 151.264 36.7541C152.83 36.7541 154.201 35.1081 155.375 31.8162L156.077 29.9998Z" fill="white"/>
<path d="M179.677 25.3312C180.196 25.8048 180.604 26.3869 180.871 27.0359C181.139 27.6848 181.259 28.3845 181.223 29.0851C181.197 30.684 180.704 32.2407 179.806 33.5655C178.79 35.0958 177.395 36.3381 175.755 37.1714C173.909 38.1325 171.85 38.6159 169.767 38.5774C167.955 38.6571 166.163 38.1754 164.637 37.1983C163.322 36.2744 162.663 34.828 162.659 32.8591C162.753 30.9146 163.225 29.0068 164.049 27.2418L168.377 17.1506C168.652 16.5936 168.8 15.9822 168.809 15.3612C168.831 15.1956 168.815 15.0271 168.761 14.8689C168.707 14.7107 168.617 14.5671 168.498 14.4496C168.379 14.3322 168.234 14.2439 168.074 14.192C167.915 14.14 167.746 14.1257 167.58 14.1502C167.156 14.1693 166.742 14.2862 166.37 14.4917C165.999 14.6971 165.681 14.9855 165.44 15.3343C164.604 16.4852 163.938 17.7493 163.462 19.0881L162.787 20.8844H161.768L163.118 17.3457C163.611 15.8194 164.566 14.4824 165.852 13.5179C166.945 12.7637 168.242 12.3579 169.571 12.354C171.844 12.354 172.983 13.2263 172.987 14.971C172.892 16.419 172.511 17.834 171.867 19.1352L168.66 26.5017C169.567 25.6722 170.629 25.0297 171.786 24.6113C172.908 24.1989 174.093 23.9849 175.289 23.979C176.87 23.8705 178.434 24.3526 179.677 25.3312ZM173.008 36.687C174.183 35.972 175.159 34.9723 175.843 33.7808C176.606 32.4727 176.996 30.9815 176.97 29.4685C176.97 26.7237 175.811 25.3514 173.494 25.3514C172.453 25.3691 171.429 25.6173 170.496 26.0779C169.51 26.5274 168.649 27.2083 167.985 28.0625L167.715 28.6478C166.879 30.379 166.384 32.254 166.257 34.171C166.212 34.6597 166.273 35.1522 166.433 35.616C166.594 36.0798 166.851 36.5045 167.188 36.8619C167.842 37.4417 168.697 37.7456 169.571 37.7096C170.79 37.6915 171.979 37.3376 173.008 36.687Z" fill="white"/>
<path d="M222.16 14.0425C223.146 15.1861 223.632 16.8949 223.632 19.1553C223.561 22.0844 222.907 24.9702 221.708 27.6453C220.492 30.6137 218.612 33.2666 216.213 35.402C213.974 37.4633 211.032 38.5986 207.983 38.5773C207.099 38.5814 206.229 38.3491 205.465 37.9046C204.721 37.4662 204.125 36.8145 203.758 36.0343L200.686 46.3273C199.059 46.3424 197.441 46.5686 195.873 47L200.686 30.6322C199.147 33.4712 197.603 35.5051 196.055 36.734C194.673 37.9025 192.926 38.5544 191.113 38.5773C190.345 38.6169 189.578 38.4825 188.87 38.1842C188.161 37.886 187.529 37.4315 187.022 36.8551C186.046 35.7114 185.555 34.0094 185.551 31.749C185.62 28.8155 186.274 25.925 187.475 23.2455C188.695 20.2782 190.579 17.6276 192.983 15.4956C195.227 13.4367 198.17 12.302 201.219 12.3202C202.089 12.3079 202.946 12.5262 203.703 12.9526C204.43 13.3685 205.016 13.9918 205.384 14.7421L205.925 12.9526C206.545 10.7314 207.358 8.56816 208.355 6.48758C209.091 4.9595 210.118 3.5886 211.379 2.45114C212.259 1.66961 213.284 1.06841 214.397 0.681852C215.569 0.242608 216.81 0.0147976 218.062 0.00910142C219.371 -0.0612323 220.669 0.277437 221.775 0.977839C222.191 1.24239 222.533 1.60754 222.769 2.03924C223.005 2.47094 223.128 2.95516 223.125 3.4468C223.119 3.88131 223.022 4.30978 222.842 4.70559C222.662 5.10139 222.402 5.45609 222.079 5.74758C221.756 6.07981 221.369 6.34343 220.94 6.52263C220.512 6.70183 220.052 6.79289 219.588 6.79032C219.021 6.82019 218.46 6.66682 217.988 6.35305C217.801 6.2148 217.653 6.03063 217.558 5.81844C217.463 5.60624 217.426 5.37323 217.448 5.1421C217.443 4.76733 217.514 4.39542 217.657 4.04863C217.799 3.70184 218.011 3.3873 218.278 3.12388C218.897 2.52385 219.663 2.09688 220.499 1.88604C220.499 1.59676 220.256 1.3344 219.777 1.09221C219.235 0.836765 218.641 0.712292 218.042 0.728928C216.888 0.759708 215.785 1.20672 214.937 1.98695C214.067 2.78272 213.423 3.79175 213.067 4.91337C212.567 6.25885 211.944 8.23671 211.197 10.8469L210.61 12.9324L208.112 21.187C209.718 18.0475 211.323 15.7781 212.925 14.3788C214.325 13.0867 216.154 12.3539 218.062 12.3202C218.832 12.2796 219.6 12.4135 220.31 12.7118C221.02 13.0101 221.652 13.4651 222.16 14.0425ZM195.751 35.5029C197.074 34.2842 198.234 32.9003 199.201 31.3857C200.367 29.6071 201.351 27.7162 202.137 25.7414L205.027 16.0069C204.717 15.1979 204.178 14.4964 203.474 13.9887C202.816 13.5895 202.057 13.3885 201.287 13.4101C199.397 13.4101 197.596 14.4842 195.886 16.6325C192.395 21.3199 190.401 26.9458 190.162 32.7783C190.097 33.8692 190.331 34.9572 190.837 35.9267C191.018 36.2539 191.285 36.5258 191.61 36.713C191.935 36.9003 192.304 36.9959 192.68 36.9896C193.571 37.0233 194.61 36.5187 195.751 35.5029ZM213.303 34.2381C216.791 29.5495 218.783 23.924 219.021 18.0924C219.085 17.0014 218.852 15.9135 218.346 14.9439C218.163 14.6177 217.896 14.3466 217.571 14.1595C217.247 13.9724 216.878 13.8762 216.503 13.881C215.571 13.881 214.502 14.4214 213.296 15.5023C211.912 16.7931 210.715 18.2693 209.739 19.8886C208.556 21.772 207.562 23.7661 206.768 25.8423L204.068 34.8032C204.385 35.6263 204.934 36.3409 205.648 36.8618C206.312 37.2772 207.085 37.4878 207.869 37.4673C209.79 37.4628 211.606 36.3864 213.317 34.2381H213.303Z" fill="white"/>
<path d="M229.12 22.7613C230.32 19.9106 232.169 17.3771 234.521 15.3611C236.776 13.3787 239.689 12.3 242.696 12.3338C244.977 12.3338 246.746 12.9729 248.096 14.2511C249.446 15.5293 250.047 17.4197 250.047 19.9425C249.986 22.776 249.35 25.5678 248.177 28.1499C246.979 31.0016 245.13 33.5354 242.777 35.5501C240.521 37.5325 237.609 38.6112 234.602 38.5774C232.32 38.5774 230.551 37.9383 229.201 36.6601C227.851 35.3819 227.25 33.4915 227.25 30.9687C227.311 28.1352 227.948 25.3434 229.12 22.7613ZM237.221 16.4375C235.46 18.8096 234.137 21.4748 233.312 24.3086C232.368 27.2452 231.874 30.307 231.847 33.3906C231.762 34.5093 232.023 35.6272 232.597 36.5928C232.866 36.9374 233.216 37.2105 233.616 37.3877C234.017 37.5649 234.455 37.6408 234.892 37.6086C236.692 37.6086 238.411 36.5592 240.049 34.4602C241.81 32.0881 243.134 29.423 243.958 26.5891C244.902 23.6525 245.396 20.5907 245.423 17.5072C245.508 16.3915 245.249 15.2765 244.68 14.3116C244.409 13.9675 244.058 13.6945 243.656 13.5163C243.255 13.3381 242.817 13.2601 242.378 13.2891C240.565 13.2891 238.846 14.3385 237.221 16.4375Z" fill="white"/>
</svg>
